**ABCDEFGHIJKLMNOPQRSTUVWXYZabcdefghijklmnopqrstuvwxyz**************************
**PARASOLID !"#$%&'()*+,-./:;<=>?@[\]^_`{|}~0123456789**************************
**PART1;
MC=AMD64;
MC_MODEL=Intel64 Family 6 Model 69 Stepping 1, GenuineIntel;
MC_ID=unknown;
OS=Windows_NT;
OS_RELEASE=unknown;
FRU=Parasolid Version 25.1, build 229,  2- 4-2014;
APPL=SolidWorks 2014-2014089;
SITE=;
USER=unknown;
FORMAT=text;
GUISE=transmit;
KEY=I0000D004T02X02Y01Z00;
FILE=I0000D004T02X02Y01Z00.x_t;
DATE=Mon Jan 09 02:09:06 2017;
**PART2;
SCH=SCH_2501229_25001;
USFLD_SIZE=0;
**PART3;
**END_OF_HEADER*****************************************************************
T51 : TRANSMIT FILE created by modeller version 250122923 SCH_2501229_25001_1300
6189 0 12 29 CCCCCCCCCCCCCDI5 owner1040 0 CCCCCCCCCA16 index_map_offset0 0 1 dA9
 index_map82 0 A17 node_id_index_map82 0 A20 schema_embedding_map82 0 A5 child12
 0 A14 lowest_node_id0 0 1 dZ1 1021 0 2 0 0 0 0 1e3 1e-8 0 3 0 1 0 1 1 4 5 6 7 8
 9 10 0 0 0 0 0 0 70 11 CI9 list_type0 0 1 uI10 notransmit0 0 1 lCCCDCCDI12 fing
er_index0 0 1 dI12 finger_block1012 0 CZ2 0 4 T1 0 0 2 20 1 11 11 13 255 4 94 0
 1 0 12 0 0 13 0 52 255 5 831 0 14 15 0 0 -.0075 867361737988404e-33 0 0 0 -1 .0
0315 .707106781186548 .707106781186547 -1 0 0 30 255 6 786 0 16 17 0 0 +.0075 -.
0065 .000400000000000007 0 .707106781186547 -.707106781186548 29 255 7 617 0 10
 18 0 -.0075 .0061 0 19 8 CCCCCCCA5 owner12 0 Z8 28 0 1 13 0 19 V0 16 255 9 632
 0 ?20 0 21 22 0 0 1 18 255 10 615 0 23 0 24 7 ?1 17 255 23 0 25 26 27 10 28 29
 0 30 +18 24 611 0 27 10 31 18 ?1 17 27 0 25 23 32 24 33 34 0 35 +18 31 607 0 32
 24 36 37 ?1 29 18 613 0 24 37 7 -.0136 533761069531334e-34 0 29 37 609 0 31 38
 18 -.0075 -.0061 0 29 38 605 0 36 39 37 .0075 -.0061 0 18 36 603 0 40 31 41 38
 ?1 29 39 601 0 41 42 38 .0136 -760609524082137e-33 0 18 41 599 0 43 36 44 39 ?1
 29 42 598 0 44 45 39 .0075 .0061 0 18 44 596 0 46 41 47 42 ?1 29 45 557 0 47 48
 42 .0075 -.0065 .0016 18 47 555 0 49 44 50 45 ?1 29 48 554 0 50 51 45 .0075 -.0
065 .000400000000000007 18 50 552 0 52 47 53 48 ?1 29 51 539 0 53 54 48 .014 -86
7361737988404e-33 .0016 18 53 537 0 55 50 56 51 ?1 29 54 536 0 56 57 51 .014 -86
7361737988404e-33 .000400000000000007 18 56 534 0 58 53 59 54 ?1 29 57 521 0 59
 60 54 .0075 .0065 .000400000000000007 18 59 519 0 61 56 62 57 ?1 29 60 518 0 62
 63 57 .0075 .0065 .0016 18 62 516 0 64 59 65 60 ?1 29 63 503 0 65 66 60 -.0075
 .0065 .0016 18 65 501 0 67 62 68 63 ?1 29 66 500 0 68 69 63 -.0075 .0065 .00040
0000000000007 18 68 498 0 70 65 71 66 ?1 29 69 485 0 71 72 66 -.0075 -.0065 .000
400000000000007 18 71 483 0 73 68 74 69 ?1 29 72 482 0 74 75 69 -.0075 -.0065 .0
016 18 74 480 0 76 71 77 72 ?1 29 75 479 0 77 78 72 -.014 0 .000400000000000007
 18 77 477 0 79 74 80 75 ?1 29 78 476 0 80 81 75 -.014 0 .0016 18 80 474 0 82 77
 83 78 ?1 29 81 466 0 83 84 78 -.0136 533761069531315e-34 .002 18 83 464 0 85 80
 86 81 ?1 29 84 462 0 86 87 81 -.0075 .0061 .002 18 86 460 0 88 83 89 84 ?1 29 8
7 458 0 89 90 84 .0075 .0061 .002 18 89 456 0 91 86 92 87 ?1 29 90 454 0 92 93 8
7 .0136 -76060952408214e-32 .002 18 92 452 0 94 89 95 90 ?1 29 93 450 0 95 96 90
 .0075 -.0061 .002 18 95 448 0 97 92 98 93 ?1 29 96 447 0 98 0 93 -.0075 -.0061
 .002 18 98 445 0 99 95 0 96 ?1 17 99 0 100 101 102 98 103 104 0 105 +15 255 100
 672 0 82 106 0 17 101 0 100 82 99 83 107 108 0 0 -17 102 0 100 99 82 74 109 110
 0 103 -17 103 0 111 112 105 74 99 104 0 0 -16 104 692 0 ?99 113 16 114 0 0 1 17
 105 0 111 103 115 98 97 116 0 107 -15 111 670 0 115 117 0 17 115 0 111 105 112
 95 118 119 0 0 +17 97 0 120 94 107 95 105 116 0 121 +16 116 449 0 ?97 122 123 1
24 0 0 1 17 107 0 120 97 85 98 101 108 0 0 +15 120 446 0 85 125 126 17 85 0 120
 107 88 83 127 128 0 129 +16 108 468 0 ?107 130 128 131 0 0 1 16 130 486 0 ?73 1
10 108 132 0 0 1 16 128 465 0 ?85 108 133 134 0 0 1 31 255 131 470 0 108 134 132
 0 +-.0075 867361737988404e-33 .002 0 0 1 1 0 0 .0061 31 134 467 0 128 135 131 0
 +-.0075 867361737988404e-33 .002 0 0 1 1 0 0 .0061 31 132 488 0 130 131 136 0 +
-.0075 867361737988404e-33 .000400000000000007 0 0 1 1 0 0 .0065 31 136 494 0 11
0 132 137 0 --.0075 867361737988404e-33 .0016 0 0 1 1 0 0 .0065 16 110 492 0 ?10
9 138 130 136 0 0 1 31 137 506 0 138 136 139 0 +-.0075 867361737988404e-33 .0004
00000000000007 0 0 1 1 0 0 .0065 16 138 504 0 ?79 140 110 137 0 0 1 31 139 512 0
 140 137 141 0 --.0075 867361737988404e-33 .0016 0 0 1 1 0 0 .0065 16 140 510 0
 ?67 142 138 139 0 0 1 30 141 524 0 142 139 143 0 +-.014 .0065 .0004000000000000
07 -1 0 0 16 142 522 0 ?144 145 140 141 0 0 1 30 143 530 0 145 141 146 0 +.0075
 .0065 .0016 1 0 0 16 145 528 0 ?64 147 142 143 0 0 1 31 146 542 0 147 143 148 0
 +.0075 867361737988404e-33 .000400000000000007 0 0 1 1 0 0 .0065 16 147 540 0 ?
61 149 145 146 0 0 1 31 148 548 0 149 146 150 0 -.0075 867361737988404e-33 .0016
 0 0 1 1 0 0 .0065 16 149 546 0 ?55 151 147 148 0 0 1 31 150 560 0 151 148 152 0
 +.0075 867361737988404e-33 .000400000000000007 0 0 1 1 0 0 .0065 16 151 558 0 ?
58 153 149 150 0 0 1 31 152 566 0 153 150 154 0 -.0075 867361737988404e-33 .0016
 0 0 1 1 0 0 .0065 16 153 564 0 ?49 155 151 152 0 0 1 30 154 572 0 155 152 156 0
 +-.014 -.0065 .000400000000000007 1 0 0 16 155 570 0 ?52 157 153 154 0 0 1 30 1
56 578 0 157 154 158 0 +-.0075 -.0065 .0016 -1 0 0 16 157 576 0 ?76 159 155 156
 0 0 1 31 158 585 0 159 156 160 0 +.0075 867361737988404e-33 0 0 0 1 1 0 0 .0031
5 16 159 582 0 ?161 162 157 158 0 0 1 31 160 592 0 162 158 163 0 +-.0075 8673617
37988404e-33 0 0 0 1 1 0 0 .00315 16 162 589 0 ?164 165 159 160 0 0 1 31 163 602
 0 165 160 166 0 -.0075 867361737988404e-33 0 0 0 1 1 0 0 .0061 16 165 600 0 ?43
 167 162 163 0 0 1 31 166 606 0 167 163 168 0 -.0075 867361737988404e-33 0 0 0 1
 1 0 0 .0061 16 167 604 0 ?40 169 165 166 0 0 1 30 168 610 0 169 166 170 0 +0 -.
0061 0 -1 0 0 16 169 608 0 ?32 34 167 168 0 0 1 31 170 614 0 34 168 171 0 --.007
5 867361737988404e-33 0 0 0 1 1 0 0 .0061 16 34 612 0 ?27 29 169 170 0 0 1 31 17
1 618 0 29 170 172 0 --.0075 867361737988404e-33 0 0 0 1 1 0 0 .0061 16 29 616 0
 ?23 173 34 171 0 0 1 30 172 621 0 173 171 174 0 +0 .0061 0 1 0 0 16 173 619 0 ?
26 21 29 172 0 0 1 31 174 628 0 21 172 22 0 --.0075 867361737988404e-33 .0004000
000000000065 0 0 1 1 0 0 .00275 16 21 625 0 ?175 9 173 174 0 0 1 31 22 635 0 9 1
74 114 0 -.0075 867361737988404e-33 .000400000000000006 0 0 1 1 0 0 .00275 30 11
4 716 0 104 22 176 0 +-.0075 -.0065 .0016 0 .707106781186545 .707106781186551 30
 176 715 0 113 114 177 0 +-.0136 533761069531315e-34 .002 -.707106781186543 -943
565179497455e-31 -.707106781186552 16 113 690 0 ?82 119 104 176 0 0 1 30 177 714
 0 119 176 178 0 +.0075 -.0065 .0016 0 .707106781186545 .707106781186551 16 119
 687 0 ?115 179 113 177 0 0 1 30 178 713 0 179 177 180 0 +-.0075 .0061 .002 0 .7
07106781186545 -.707106781186551 16 179 684 0 ?181 182 119 178 0 0 1 30 180 712
 0 182 178 183 0 +.014 -867361737988404e-33 .0016 -.707106781186545 188713035899
4915e-31 .707106781186551 16 182 681 0 ?184 185 179 180 0 0 1 30 183 711 0 185 1
80 186 0 +.0075 .0061 .002 0 .707106781186544 -.707106781186551 16 185 678 0 ?18
7 188 182 183 0 0 1 30 186 791 0 189 183 190 0 +-.0075 .0061 0 0 .70710678118654
7 .707106781186548 16 189 767 0 ?70 191 0 186 0 0 1 30 190 790 0 191 186 192 0 +
.0075 .0065 .000400000000000007 0 -.707106781186546 -.707106781186549 16 191 765
 0 ?46 193 189 190 0 0 1 30 192 789 0 193 190 194 0 +-.0136 533761069531334e-34
 0 -.707106781186548 -943565179497458e-31 .707106781186547 16 193 762 0 ?195 196
 191 192 0 0 1 30 194 788 0 196 192 17 0 +.014 -867361737988404e-33 .00040000000
0000007 -.707106781186547 188713035899492e-30 -.707106781186548 16 196 759 0 ?19
7 198 193 194 0 0 1 30 17 787 0 198 194 6 0 +-.0075 -.0061 0 0 -.707106781186547
 .707106781186548 16 198 756 0 ?199 16 196 17 0 0 1 17 199 0 200 201 33 71 202 1
98 0 0 +16 16 753 0 ?203 104 198 6 0 0 1 17 203 0 204 205 206 36 207 16 0 0 +15
 204 739 0 203 208 0 17 205 0 204 209 203 41 40 167 0 197 -17 206 0 204 203 209
 50 58 151 0 0 -17 207 0 210 211 212 50 203 16 0 206 -15 210 737 0 202 213 0 17
 211 0 210 202 207 71 52 155 0 199 -17 212 0 210 207 202 36 32 169 0 203 -17 202
 0 210 212 211 31 199 198 0 33 -17 32 0 25 27 40 31 212 169 0 202 +15 25 597 0 2
3 214 215 17 40 0 25 32 43 36 205 167 0 212 +17 43 0 25 40 26 41 216 165 0 205 +
17 26 0 25 43 23 44 30 173 0 0 +17 216 0 217 218 197 44 43 165 0 26 -15 217 743
 0 197 219 0 17 218 0 217 220 216 59 46 191 0 221 -17 197 0 217 216 220 41 209 1
96 0 0 +17 220 0 217 197 218 56 61 147 0 0 -17 209 0 204 206 205 56 197 196 0 22
0 -17 61 0 222 223 224 59 220 147 0 225 +15 222 341 0 223 226 0 17 223 0 222 55
 61 62 225 123 0 227 -17 224 0 222 61 55 56 228 229 0 209 -17 225 0 230 144 64 5
9 223 123 0 218 +15 230 82 0 231 12 0 17 144 0 230 231 225 68 221 142 0 232 +17
 64 0 230 225 231 62 233 145 0 223 +16 123 517 0 ?225 116 234 235 0 0 1 16 234 4
99 0 ?231 123 236 237 0 0 1 30 235 326 0 123 237 238 0 +.0075 .0065 .002 0 0 -1
 30 237 321 0 234 239 235 0 --.0075 .0065 .002 0 0 -1 30 238 361 0 229 235 240 0
 -.014 -867361737988404e-33 .002 0 0 -1 16 229 535 0 ?228 241 188 238 0 0 1 30 2
40 393 0 188 238 124 0 +-.014 0 .002 0 0 -1 16 188 475 0 ?242 229 185 240 0 0 1
 30 124 451 0 116 240 243 0 +.0075 -.0061 .002 1 0 0 31 243 455 0 122 124 244 0
 +.0075 867361737988404e-33 .002 0 0 1 1 0 0 .0061 16 122 453 0 ?94 245 116 243
 0 0 1 31 244 459 0 245 243 135 0 +.0075 867361737988404e-33 .002 0 0 1 1 0 0 .0
061 16 245 457 0 ?91 133 122 244 0 0 1 30 135 463 0 133 244 134 0 +-.0075 .0061
 .002 -1 0 0 16 133 461 0 ?88 128 245 135 0 0 1 17 88 0 120 85 91 86 246 133 0 2
47 +17 91 0 120 88 94 89 248 245 0 249 +17 246 0 250 187 247 89 88 133 0 0 -17 2
47 0 250 246 233 86 181 179 0 127 -15 250 664 0 187 251 0 17 233 0 250 247 187 6
5 64 145 0 181 -17 181 0 252 253 127 65 247 179 0 0 +17 127 0 252 181 129 86 85
 128 0 0 -15 252 668 0 181 254 0 17 129 0 252 127 253 83 82 113 0 101 -17 253 0
 252 129 181 80 67 140 0 109 -17 82 0 100 102 101 80 129 113 0 253 +17 67 0 255
 232 256 65 253 140 0 231 +17 109 0 257 242 258 80 102 110 0 256 +15 257 375 0 2
58 259 0 17 242 0 257 73 109 77 256 188 0 201 +17 258 0 257 109 73 74 260 261 0
 102 -17 256 0 255 67 79 80 242 188 0 0 -15 255 373 0 256 262 0 17 79 0 255 256
 232 77 263 138 0 242 +17 232 0 255 79 67 68 231 234 0 0 -17 263 0 264 265 195 6
8 79 138 0 144 -15 264 745 0 195 266 0 17 265 0 264 28 263 10 70 189 0 0 -17 195
 0 264 263 28 77 35 193 0 0 +17 28 0 264 195 265 24 23 29 0 0 -17 35 0 200 33 20
1 24 195 193 0 28 -15 200 741 0 199 267 0 17 33 0 200 199 35 31 27 34 0 0 -17 20
1 0 200 35 199 77 73 130 0 195 -17 73 0 257 258 242 71 201 130 0 260 +17 260 0 2
68 52 76 71 258 261 0 211 +15 268 78 0 269 270 0 17 52 0 268 269 260 50 211 155
 0 271 +17 76 0 268 260 269 74 112 157 0 258 +16 261 481 0 ?260 236 272 273 0 0
 1 16 236 553 0 ?269 234 261 239 0 0 1 16 272 156 0 ?274 261 241 275 0 0 1 30 27
3 279 0 261 275 239 0 +-.0075 -.0065 .002 0 0 -1 31 275 175 0 272 276 273 0 +-.0
075 867361737988404e-33 .002 0 0 1 1 0 0 .00275 30 239 284 0 236 273 237 0 -.007
5 -.0065 .002 0 0 -1 31 276 221 0 241 0 275 0 +.0075 867361737988404e-33 .002 0
 0 1 1 0 0 .00275 16 241 202 0 ?277 272 229 276 0 0 1 17 277 0 278 277 277 0 279
 241 0 0 +15 278 209 0 277 280 0 17 279 0 126 279 279 0 277 241 0 0 -15 126 194
 0 279 125 281 14 255 125 1 282 ?214 270 120 4 283 +0 0 214 270 19 15 281 148 0
 284 125 0 17 284 0 281 284 284 0 274 272 0 0 -17 274 0 285 274 274 0 284 272 0
 0 +15 285 163 0 274 286 0 14 286 159 287 ?280 214 288 4 289 -0 0 280 214 19 81
 255 1 287 999 290 286 291 0 282 292 293 14 280 205 292 ?226 286 294 4 295 -0 0
 226 286 19 14 214 43 296 ?286 125 25 4 297 -0 0 286 125 19 15 288 626 0 175 286
 285 51 255 289 172 0 286 295 283 0 +-.0075 867361737988404e-33 0 0 0 1 .00275 1
 0 0 13 19 29 0 0 0 0 0 0 8 12 14 12 83 298 ?270 0 230 4 299 -0 0 270 0 19 81 1
 298 1002 290 12 300 0 296 301 302 14 270 79 301 ?125 12 268 4 303 -0 0 125 12 1
9 50 255 299 92 0 12 303 304 0 +-.014 .0065 .002 0 -1 0 0 0 -1 50 303 90 0 270 2
97 299 0 +-.014 -.0065 .002 0 1 0 0 0 1 51 304 360 0 305 299 306 0 +.0075 867361
737988404e-33 .002 0 0 -1 .0065 -1 0 0 14 305 342 307 ?262 226 308 4 304 +0 0 26
2 226 19 51 306 359 0 226 304 309 0 +.0075 867361737988404e-33 .002 0 0 -1 .0065
 -1 0 0 14 226 340 310 ?305 280 222 4 306 +0 0 305 280 19 51 309 392 0 259 306 3
11 0 +-.0075 867361737988404e-33 .002 0 0 -1 .0065 -1 0 0 14 259 374 312 ?313 26
2 257 4 309 +0 0 313 262 19 51 311 391 0 262 309 314 0 +-.0075 867361737988404e-
33 .002 0 0 -1 .0065 -1 0 0 14 262 372 315 ?259 305 255 4 311 +0 0 259 305 19 52
 314 710 0 106 311 316 0 +-.0075 867361737988404e-33 .002 0 0 -1 .0061 .70710678
1186545 .70710678118655 -1 0 0 14 106 671 317 ?213 117 100 4 314 +0 0 213 117 19
 50 316 709 0 117 314 318 0 +0 -.0061 .002 0 -.707106781186551 .707106781186545
 -1 0 0 14 117 669 319 ?106 254 111 4 316 +0 0 106 254 19 52 318 708 0 254 316 3
20 0 +-.0075 867361737988404e-33 .002 0 0 -1 .0061 .707106781186545 .70710678118
6551 -1 0 0 14 254 667 321 ?117 322 252 4 318 +0 0 117 322 19 52 320 707 0 322 3
18 323 0 +.0075 867361737988404e-33 .002 0 0 -1 .0061 .707106781186545 .70710678
1186551 -1 0 0 14 322 665 324 ?254 251 325 4 320 +0 0 254 251 19 50 323 706 0 25
1 320 326 0 +0 .0061 .002 0 .707106781186551 .707106781186545 1 0 0 14 251 663 3
27 ?322 313 250 4 323 +0 0 322 313 19 52 326 705 0 313 323 328 0 +.0075 86736173
7988404e-33 .002 0 0 -1 .0061 .707106781186544 .707106781186551 -1 0 0 14 313 66
1 329 ?251 259 330 4 326 +0 0 251 259 19 50 328 785 0 331 326 332 0 --.014 .0065
 .000400000000000007 0 -.707106781186548 .707106781186547 -1 0 0 14 331 746 333
 ?334 266 335 4 328 +0 0 334 266 19 52 332 784 0 266 328 336 0 +-.0075 867361737
988404e-33 0 0 0 1 .0061 .707106781186547 .707106781186548 1 0 0 14 266 744 337
 ?331 219 264 4 332 +0 0 331 219 19 52 336 783 0 219 332 338 0 +.0075 8673617379
88404e-33 0 0 0 1 .0061 .707106781186546 .707106781186549 1 0 0 14 219 742 339 ?
266 267 217 4 336 +0 0 266 267 19 52 338 782 0 267 336 340 0 +-.0075 86736173798
8404e-33 0 0 0 1 .0061 .707106781186548 .707106781186548 1 0 0 14 267 740 341 ?2
19 208 200 4 338 +0 0 219 208 19 52 340 781 0 208 338 342 0 +.0075 8673617379884
04e-33 0 0 0 1 .0061 .707106781186547 .707106781186548 1 0 0 14 208 738 343 ?267
 213 204 4 340 +0 0 267 213 19 50 342 780 0 213 340 15 0 --.014 -.0065 .00040000
0000000007 0 .707106781186548 .707106781186547 1 0 0 14 213 736 344 ?208 106 210
 4 342 +0 0 208 106 19 52 15 818 0 334 342 5 0 --.0075 867361737988404e-33 0 0 0
 -1 .00315 .707106781186547 .707106781186548 -1 0 0 14 334 811 345 ?14 331 346 4
 15 +0 0 14 331 19 81 1 345 1020 290 334 347 0 344 348 349 14 14 824 348 ?0 334
 350 4 5 +0 0 0 334 19 15 346 812 0 351 334 352 17 351 0 346 351 351 0 175 21 0
 0 -15 352 813 0 353 334 0 17 353 0 352 353 353 0 164 162 0 0 -17 164 0 215 164
 164 0 353 162 0 0 +15 215 590 0 164 214 354 15 354 583 0 161 214 0 17 161 0 354
 161 161 0 355 159 0 0 +17 355 0 356 355 355 0 161 159 0 0 -15 356 826 0 355 14
 0 17 175 0 288 175 175 0 351 21 0 0 +81 1 348 1021 290 14 357 0 345 0 358 15 35
0 825 0 359 14 356 17 359 0 350 359 359 0 20 9 0 0 -17 20 0 294 20 20 0 359 9 0
 0 +15 294 633 0 20 280 278 80 255 1 290 360 361 9000 1 1 1 1 1 1 1 1 0 FFFFTFTF
FFFFFF1 81 1 357 947 362 14 0 348 347 0 363 82 255 1 358 642253546 80 1 362 0 36
4 8001 0 0 0 0 3 5 0 0 0 FFFFTFTFFFFFFF2 81 1 347 946 362 334 0 345 365 357 366
 83 255 3 363 .909803921568627 .443137254901961 .03137254901960785 81 1 365 945
 362 331 0 333 367 347 368 83 3 366 .909803921568627 .443137254901961 .031372549
01960785 81 1 333 1014 290 331 365 0 329 337 369 81 1 367 944 362 266 0 337 370
 365 371 83 3 368 .909803921568627 .443137254901961 .03137254901960785 81 1 337
 1015 290 266 367 0 333 339 372 81 1 370 943 362 219 0 339 373 367 374 83 3 371
 .909803921568627 .443137254901961 .03137254901960785 81 1 339 1016 290 219 370
 0 337 341 375 81 1 373 942 362 267 0 341 376 370 377 83 3 374 .909803921568627
 .443137254901961 .03137254901960785 81 1 341 1017 290 267 373 0 339 343 378 81
 1 376 941 362 208 0 343 379 373 380 83 3 377 .909803921568627 .443137254901961
 .03137254901960785 81 1 343 1018 290 208 376 0 341 344 381 81 1 379 940 362 213
 0 344 382 376 383 83 3 380 .909803921568627 .443137254901961 .03137254901960785
 81 1 344 1019 290 213 379 0 343 345 384 81 1 382 939 362 106 0 317 385 379 386
 83 3 383 .909803921568627 .443137254901961 .03137254901960785 81 1 317 1008 290
 106 382 0 315 319 387 81 1 385 938 362 117 0 319 388 382 389 83 3 386 .90980392
1568627 .443137254901961 .03137254901960785 81 1 319 1009 290 117 385 0 317 321
 390 81 1 388 937 362 254 0 321 391 385 392 83 3 389 .909803921568627 .443137254
901961 .03137254901960785 81 1 321 1010 290 254 388 0 319 324 393 81 1 391 936 3
62 322 0 324 394 388 395 83 3 392 .909803921568627 .443137254901961 .03137254901
960785 81 1 324 1011 290 322 391 0 321 327 396 81 1 394 935 362 251 0 327 397 39
1 398 83 3 395 .909803921568627 .443137254901961 .03137254901960785 81 1 327 101
2 290 251 394 0 324 329 399 81 1 397 934 362 313 0 329 400 394 401 83 3 398 .909
803921568627 .443137254901961 .03137254901960785 81 1 329 1013 290 313 397 0 327
 333 402 81 1 400 933 362 259 0 312 403 397 404 83 3 401 .909803921568627 .44313
7254901961 .03137254901960785 81 1 312 1006 290 259 400 0 310 315 405 81 1 403 9
32 362 262 0 315 406 400 407 83 3 404 .909803921568627 .443137254901961 .0313725
4901960785 81 1 315 1007 290 262 403 0 312 317 408 81 1 406 931 362 305 0 307 40
9 403 410 83 3 407 .909803921568627 .443137254901961 .03137254901960785 81 1 307
 1004 290 305 406 0 301 310 411 81 1 409 930 362 226 0 310 412 406 413 83 3 410
 .909803921568627 .443137254901961 .03137254901960785 81 1 310 1005 290 226 409
 0 307 312 414 81 1 412 929 362 280 0 292 291 409 415 83 3 413 .909803921568627
 .443137254901961 .03137254901960785 81 1 292 1000 290 280 412 0 287 296 416 81
 1 291 928 362 286 0 287 417 412 418 83 3 415 .909803921568627 .443137254901961
 .03137254901960785 81 1 417 927 362 214 0 296 419 291 420 83 3 418 .90980392156
8627 .443137254901961 .03137254901960785 81 1 296 1001 290 214 417 0 292 298 421
 81 1 419 926 362 125 0 282 422 417 423 83 3 420 .909803921568627 .4431372549019
61 .03137254901960785 81 1 282 998 290 125 419 0 0 287 424 81 1 422 925 362 270
 0 301 300 419 425 83 3 423 .909803921568627 .443137254901961 .03137254901960785
 81 1 301 1003 290 270 422 0 298 307 426 81 1 300 924 362 12 0 298 0 422 427 83
 3 425 .909803921568627 .443137254901961 .03137254901960785 83 3 427 .9098039215
68627 .443137254901961 .03137254901960785 82 1 426 30933738 82 1 424 31982314 82
 1 421 32113386 82 1 416 31523562 82 1 414 31392490 82 1 411 31261418 82 1 408 3
0606058 82 1 405 30474986 82 1 402 632554218 82 1 399 631440106 82 1 396 6303259
94 82 1 393 629211882 82 1 390 628032234 82 1 387 626459370 82 1 384 639828714 8
2 1 381 638714602 82 1 378 637600490 82 1 375 636486378 82 1 372 635306730 82 1
 369 633733866 79 255 15 364 SDL/TYSA_COLOUR79 14 361 SWEntUnchanged82 1 349 641
008362 15 335 747 0 46 331 0 17 46 0 335 30 221 44 218 191 0 216 +17 30 0 335 70
 46 10 26 173 0 265 -17 221 0 335 46 70 59 144 142 0 0 -17 70 0 335 221 30 68 26
5 189 0 263 +15 330 662 0 428 313 0 17 428 0 330 227 248 53 184 182 0 429 -17 22
7 0 330 249 428 62 55 149 0 187 -17 248 0 330 428 249 92 91 245 0 184 -17 184 0
 325 121 429 92 428 182 0 0 +17 429 0 325 184 118 53 49 153 0 0 -15 325 666 0 18
4 322 0 17 118 0 325 429 121 47 115 119 0 112 -17 49 0 308 271 228 47 429 153 0
 269 +15 308 343 0 228 305 0 17 271 0 308 58 49 50 269 236 0 207 -17 228 0 308 4
9 58 53 224 229 0 428 +17 269 0 268 76 52 47 271 236 0 118 +17 58 0 308 228 271
 56 206 151 0 224 +17 121 0 325 118 184 95 94 122 0 115 -17 112 0 111 115 103 47
 76 157 0 0 -17 94 0 120 91 97 92 121 122 0 248 +17 249 0 330 248 227 89 187 185
 0 246 -17 187 0 250 233 246 62 249 185 0 0 +17 55 0 222 224 223 53 227 149 0 22
8 +50 297 65 0 214 283 303 0 +0 0 0 0 0 1 1 0 0 50 283 2 0 125 289 297 0 +0 0 .0
02 0 0 1 1 0 0 82 1 302 30802666 51 295 218 0 280 0 289 0 +.0075 867361737988404
e-33 0 0 0 1 .00275 1 0 0 82 1 293 31654634 17 231 0 230 64 144 65 232 234 0 233
 +19 13 95 0 1 0 8 4 S0 74 4 CI16 index_map_offset0 0 1 dCCZ20 11 2 0 0 348 357
 0 0 0 0 0 0 0 0 0 0 0 0 0 0 0 0 0 0 1 0 
